<svg width="81" height="47" viewBox="0 0 81 47" fill="none" xmlns="http://www.w3.org/2000/svg">
<path d="M0.272727 9.59091L1.81818 0.454544H41.1591L39.6136 9.59091H25.5L19.3182 47H8.22727L14.4091 9.59091H0.272727Z" fill="white"/>
<path d="M38.9261 47L46.6534 0.454544H65.8807C69.3655 0.454544 72.267 1.12879 74.5852 2.47727C76.9034 3.82576 78.5473 5.71212 79.517 8.13636C80.4867 10.5606 80.7064 13.3712 80.1761 16.5682C79.661 19.7955 78.5019 22.6061 76.6989 25C74.911 27.3939 72.608 29.25 69.7898 30.5682C66.9716 31.8864 63.767 32.5455 60.1761 32.5455H48.3352L49.8125 23.6818H59.5852C61.2973 23.6818 62.7746 23.3864 64.017 22.7955C65.2746 22.2045 66.2822 21.3788 67.0398 20.3182C67.7973 19.2576 68.2973 18.0076 68.5398 16.5682C68.767 15.1288 68.6761 13.8864 68.267 12.8409C67.858 11.7803 67.1231 10.9621 66.0625 10.3864C65.017 9.81061 63.6534 9.52273 61.9716 9.52273H56.4261L50.1761 47H38.9261Z" fill="url(#paint0_linear_4_2)"/>
<defs>
<linearGradient id="paint0_linear_4_2" x1="42" y1="-15" x2="42" y2="61" gradientUnits="userSpaceOnUse">
<stop offset="0.281" stop-color="#E66E00"/>
<stop offset="1" stop-color="white" stop-opacity="0"/>
</linearGradient>
</defs>
</svg>
